<svg xmlns="http://www.w3.org/2000/svg" viewBox="0 0 1200 1200" role="img" aria-label="A library of skill modules — some built (gold), some adopted (muted)">
  <rect width="1200" height="1200" fill="#1c1a17"/>

  <!-- Row 1 — skills I built (gold accent) -->
  <g stroke="#3a352e" stroke-width="3">
    <rect x="180" y="410" width="250" height="210" rx="20" fill="#232019"/>
    <rect x="475" y="410" width="250" height="210" rx="20" fill="#232019"/>
    <rect x="770" y="410" width="250" height="210" rx="20" fill="#232019"/>
  </g>
  <g fill="#cfa24e">
    <rect x="208" y="438" width="46" height="46" rx="12"/>
    <rect x="503" y="438" width="46" height="46" rx="12"/>
    <rect x="798" y="438" width="46" height="46" rx="12"/>
    <circle cx="402" cy="461" r="7"/>
    <circle cx="697" cy="461" r="7"/>
    <circle cx="992" cy="461" r="7"/>
  </g>
  <g fill="#4a443b">
    <rect x="208" y="522" width="190" height="13" rx="6"/>
    <rect x="503" y="522" width="190" height="13" rx="6"/>
    <rect x="798" y="522" width="190" height="13" rx="6"/>
  </g>
  <g fill="#3a352e">
    <rect x="208" y="552" width="140" height="13" rx="6"/>
    <rect x="503" y="552" width="140" height="13" rx="6"/>
    <rect x="798" y="552" width="140" height="13" rx="6"/>
  </g>

  <!-- Row 2 — skills I adopt (muted) -->
  <g stroke="#3a352e" stroke-width="3">
    <rect x="180" y="680" width="250" height="210" rx="20" fill="#201d17"/>
    <rect x="475" y="680" width="250" height="210" rx="20" fill="#201d17"/>
    <rect x="770" y="680" width="250" height="210" rx="20" fill="#201d17"/>
  </g>
  <g fill="#2f2a22" stroke="#4a443b" stroke-width="2">
    <rect x="208" y="708" width="46" height="46" rx="12"/>
    <rect x="503" y="708" width="46" height="46" rx="12"/>
    <rect x="798" y="708" width="46" height="46" rx="12"/>
  </g>
  <g fill="#3f382e">
    <rect x="208" y="792" width="190" height="13" rx="6"/>
    <rect x="503" y="792" width="190" height="13" rx="6"/>
    <rect x="798" y="792" width="190" height="13" rx="6"/>
    <rect x="208" y="822" width="140" height="13" rx="6"/>
    <rect x="503" y="822" width="140" height="13" rx="6"/>
    <rect x="798" y="822" width="140" height="13" rx="6"/>
  </g>
</svg>
